<svg xmlns="http://www.w3.org/2000/svg" xmlns:xlink="http://www.w3.org/1999/xlink" width="50" zoomAndPan="magnify" viewBox="0 0 37.5 37.499999" height="50" preserveAspectRatio="xMidYMid meet" version="1.0"><defs><clipPath id="a9f84d81f0"><path d="M 10.605469 0 L 28.367188 0 L 28.367188 37 L 10.605469 37 Z M 10.605469 0 " clip-rule="nonzero"/></clipPath></defs><g clip-path="url(#a9f84d81f0)"><path fill="#ffffff" d="M 24.269531 6.144531 L 28.367188 6.144531 L 28.367188 0.0664062 L 23.132812 0.0664062 L 23.132812 0.0898438 C 16.253906 0.339844 14.835938 4.128906 14.71875 8.136719 L 14.703125 8.136719 L 14.703125 12.355469 L 10.605469 12.355469 L 10.605469 18.441406 L 14.703125 18.441406 L 14.703125 36.9375 L 22.054688 36.9375 L 22.054688 18.441406 L 27.328125 18.441406 L 28.367188 12.355469 L 22.054688 12.355469 L 22.054688 8.582031 C 22.054688 7.238281 22.96875 6.144531 24.269531 6.144531 Z M 24.269531 6.144531 " fill-opacity="1" fill-rule="nonzero"/></g></svg>