<svg xmlns="http://www.w3.org/2000/svg" xmlns:xlink="http://www.w3.org/1999/xlink" width="50" zoomAndPan="magnify" viewBox="0 0 37.5 37.499999" height="50" preserveAspectRatio="xMidYMid meet" version="1.0"><defs><clipPath id="80904d7407"><path d="M 0 0 L 37.007812 0 L 37.007812 37.007812 L 0 37.007812 Z M 0 0 " clip-rule="nonzero"/></clipPath></defs><g clip-path="url(#80904d7407)"><path fill="#ffffff" d="M 26.703125 37.007812 L 10.304688 37.007812 C 4.644531 37.007812 0 32.363281 0 26.703125 L 0 10.304688 C 0 4.644531 4.644531 0 10.304688 0 L 26.703125 0 C 32.363281 0 37.007812 4.644531 37.007812 10.304688 L 37.007812 26.703125 C 37.007812 32.363281 32.363281 37.007812 26.703125 37.007812 Z M 10.304688 2.320312 C 5.949219 2.320312 2.320312 5.949219 2.320312 10.304688 L 2.320312 26.703125 C 2.320312 31.054688 5.949219 34.683594 10.304688 34.683594 L 26.703125 34.683594 C 31.054688 34.683594 34.683594 31.054688 34.683594 26.703125 L 34.683594 10.304688 C 34.683594 5.949219 31.054688 2.320312 26.703125 2.320312 Z M 10.304688 2.320312 " fill-opacity="1" fill-rule="evenodd"/></g><path fill="#ffffff" d="M 18.503906 24.890625 C 15.019531 24.890625 12.117188 21.984375 12.117188 18.503906 C 12.117188 15.019531 15.019531 12.117188 18.503906 12.117188 C 21.984375 12.117188 24.890625 15.019531 24.890625 18.503906 C 24.890625 21.984375 21.984375 24.890625 18.503906 24.890625 Z M 18.503906 14.441406 C 16.253906 14.441406 14.441406 16.253906 14.441406 18.503906 C 14.441406 20.753906 16.253906 22.566406 18.503906 22.566406 C 20.753906 22.566406 22.566406 20.753906 22.566406 18.503906 C 22.566406 16.253906 20.753906 14.441406 18.503906 14.441406 Z M 18.503906 14.441406 " fill-opacity="1" fill-rule="evenodd"/><path fill="#ffffff" d="M 18.503906 28.953125 C 12.769531 28.953125 8.054688 24.234375 8.054688 18.503906 C 8.054688 12.769531 12.769531 8.054688 18.503906 8.054688 C 24.234375 8.054688 28.953125 12.769531 28.953125 18.503906 C 28.953125 24.234375 24.234375 28.953125 18.503906 28.953125 Z M 18.503906 10.375 C 14.003906 10.375 10.375 14.003906 10.375 18.503906 C 10.375 23.003906 14.003906 26.628906 18.503906 26.628906 C 23.003906 26.628906 26.628906 23.003906 26.628906 18.503906 C 26.628906 14.003906 23.003906 10.375 18.503906 10.375 Z M 18.503906 10.375 " fill-opacity="1" fill-rule="evenodd"/><path fill="#ffffff" d="M 9.941406 8.5625 L 7.402344 8.5625 C 6.75 8.5625 6.242188 8.054688 6.242188 7.402344 C 6.242188 6.75 6.75 6.242188 7.402344 6.242188 L 9.941406 6.242188 C 10.59375 6.242188 11.101562 6.75 11.101562 7.402344 C 11.101562 8.054688 10.59375 8.5625 9.941406 8.5625 Z M 9.941406 8.5625 " fill-opacity="1" fill-rule="evenodd"/></svg>