<svg xmlns="http://www.w3.org/2000/svg" xmlns:xlink="http://www.w3.org/1999/xlink" width="50" zoomAndPan="magnify" viewBox="0 0 37.5 37.499999" height="50" preserveAspectRatio="xMidYMid meet" version="1.0"><defs><clipPath id="2d53795ff6"><path d="M 0 0 L 37.007812 0 L 37.007812 37.007812 L 0 37.007812 Z M 0 0 " clip-rule="nonzero"/></clipPath></defs><g clip-path="url(#2d53795ff6)"><path fill="#ffffff" d="M 18.503906 0 C 8.28125 0 0 8.28125 0 18.503906 C 0 28.722656 8.28125 37.007812 18.503906 37.007812 C 28.722656 37.007812 37.007812 28.722656 37.007812 18.503906 C 36.992188 8.28125 28.707031 0 18.503906 0 Z M 18.582031 32.054688 C 17.253906 32.054688 15.957031 31.863281 14.738281 31.496094 C 15.042969 30.855469 15.957031 28.964844 16.164062 28.179688 C 16.371094 27.410156 16.996094 24.863281 16.996094 24.863281 C 17.878906 25.839844 18.96875 26.480469 20.265625 26.433594 C 25.230469 26.289062 27.234375 22.234375 27.554688 18.3125 C 27.8125 15.011719 25.792969 9.597656 18.792969 9.597656 C 12.367188 9.597656 10.027344 14.082031 9.578125 16.726562 C 9.082031 19.65625 10.460938 23.019531 12.734375 23.101562 L 13.199219 21.289062 C 12.238281 20.152344 11.726562 18.777344 12.160156 16.710938 C 12.511719 14.996094 14.59375 11.664062 18.871094 11.773438 C 23.855469 11.902344 24.605469 16.085938 24.238281 18.550781 C 23.261719 24.992188 19.59375 24.160156 19.464844 24.125 C 18.054688 23.855469 17.75 22.828125 17.8125 21.820312 C 17.863281 20.761719 18.742188 19.640625 19.015625 17.78125 C 19.191406 16.597656 19.046875 15.011719 17.476562 14.835938 C 15.796875 14.660156 15.011719 16.386719 14.867188 17.046875 C 14.5625 18.550781 14.738281 19.175781 15.140625 20.410156 C 15.140625 20.410156 13.859375 25.90625 13.359375 27.777344 C 13.199219 28.417969 13.136719 30.039062 13.121094 30.871094 C 8.347656 28.773438 5.015625 24.015625 5.015625 18.457031 C 5.015625 10.972656 11.085938 4.902344 18.566406 4.902344 C 26.046875 4.902344 32.121094 10.972656 32.121094 18.457031 C 32.136719 25.984375 26.066406 32.054688 18.582031 32.054688 Z M 18.582031 32.054688 " fill-opacity="1" fill-rule="nonzero"/></g></svg>