<svg xmlns="http://www.w3.org/2000/svg" xmlns:xlink="http://www.w3.org/1999/xlink" width="50" zoomAndPan="magnify" viewBox="0 0 37.5 37.499999" height="50" preserveAspectRatio="xMidYMid meet" version="1.0"><defs><clipPath id="4c81b183af"><path d="M 0 3 L 37 3 L 37 34.808594 L 0 34.808594 Z M 0 3 " clip-rule="nonzero"/></clipPath></defs><g clip-path="url(#4c81b183af)"><path fill="#ffffff" d="M 36.433594 4.804688 C 36.179688 4.601562 35.515625 4.742188 35.101562 4.910156 C 33.925781 5.386719 32.78125 5.921875 31.644531 6.488281 C 30.566406 7.023438 29.796875 6.882812 28.800781 6.027344 C 24.390625 2.242188 19.808594 2.929688 16.589844 7.800781 C 15.820312 9.097656 15.113281 10.421875 14.484375 11.789062 C 12.4375 11.078125 9.453125 7.746094 9.292969 5.21875 C 9.21875 4.675781 8.871094 4.214844 8.382812 3.980469 C 7.820312 3.960938 7.285156 4.207031 6.9375 4.648438 C 2.65625 10.722656 1.210938 17.171875 4.675781 24.371094 C 3.625 24.378906 2.570312 24.445312 1.53125 24.585938 C 0.9375 24.691406 0.421875 25.039062 0.09375 25.535156 C 0.0195312 26.089844 0.207031 26.632812 0.601562 27.027344 C 3.472656 29.9375 7.003906 32.117188 10.890625 33.382812 C 14.738281 34.546875 18.898438 34.761719 22.53125 32.875 C 30.277344 28.859375 33.035156 24.191406 32.613281 15.621094 C 32.492188 14.558594 32.902344 13.5 33.710938 12.796875 C 35.589844 11.003906 36.367188 8.609375 36.941406 6.167969 C 36.988281 5.660156 36.808594 5.152344 36.433594 4.804688 Z M 30.285156 18.484375 C 30.023438 24.34375 26.691406 28.097656 21.796875 30.59375 C 18.625 32.21875 15.03125 32.132812 11.742188 31.128906 C 9.097656 30.324219 6.710938 28.660156 4.207031 27.375 L 4.375 26.859375 C 5.324219 26.726562 6.261719 26.519531 7.171875 26.238281 C 7.78125 26.042969 8.289062 25.601562 8.582031 25.027344 C 8.703125 24.644531 8.09375 24.003906 7.761719 23.515625 C 7.039062 22.445312 6.007812 21.488281 5.613281 20.316406 C 4.402344 16.730469 5.40625 11.21875 7.605469 8.203125 C 9.125 10.917969 11.414062 13.113281 14.195312 14.53125 C 15.882812 15.40625 16.429688 15.09375 16.699219 13.246094 C 17.058594 10.429688 18.683594 7.921875 21.113281 6.449219 C 23.066406 5.21875 26.492188 6.363281 28.078125 8.65625 C 30.144531 11.621094 30.445312 14.984375 30.285156 18.484375 Z M 32.117188 11.5 C 31.703125 10.421875 31.46875 9.78125 31.175781 9.011719 L 34.152344 7.953125 C 33.402344 9.265625 32.855469 10.203125 32.117188 11.5 Z M 16.429688 22.757812 C 15.960938 24.34375 15.332031 25.871094 14.558594 27.328125 C 14.363281 27.703125 13.527344 27.742188 12.984375 27.9375 C 12.890625 27.335938 12.589844 26.671875 12.757812 26.15625 C 13.171875 25.160156 13.660156 24.191406 14.230469 23.273438 C 11.988281 22.425781 10.382812 21.28125 9.414062 19.394531 C 9.144531 18.992188 8.976562 18.53125 8.925781 18.042969 C 9.070312 17.535156 9.285156 17.046875 9.59375 16.617188 C 10.015625 16.871094 10.65625 17.03125 10.816406 17.40625 C 11.632812 19.328125 13.320312 20.757812 15.359375 21.246094 C 15.835938 21.375 16.542969 22.363281 16.429688 22.757812 Z M 23.761719 8.429688 C 24.183594 8.449219 24.578125 8.976562 25.289062 9.519531 C 24.539062 9.996094 24.070312 10.53125 23.769531 10.449219 C 23.292969 10.261719 22.933594 9.855469 22.8125 9.359375 C 22.785156 9.078125 23.441406 8.410156 23.761719 8.429688 Z M 23.761719 8.429688 " fill-opacity="1" fill-rule="nonzero"/></g></svg>