<svg xmlns="http://www.w3.org/2000/svg" xmlns:xlink="http://www.w3.org/1999/xlink" width="50" zoomAndPan="magnify" viewBox="0 0 37.5 37.499999" height="50" preserveAspectRatio="xMidYMid meet" version="1.0"><defs><clipPath id="790ccd1c4f"><path d="M 0 4.8125 L 37.007812 4.8125 L 37.007812 32.195312 L 0 32.195312 Z M 0 4.8125 " clip-rule="nonzero"/></clipPath></defs><g clip-path="url(#790ccd1c4f)"><path fill="#ffffff" d="M 11.695312 12.800781 C 11.695312 11.988281 12.152344 11.234375 12.863281 10.835938 C 13.578125 10.4375 14.457031 10.457031 15.152344 10.882812 L 24.246094 16.480469 C 24.914062 16.894531 25.316406 17.609375 25.316406 18.398438 C 25.316406 19.1875 24.917969 19.902344 24.246094 20.316406 L 14.734375 26.175781 C 14.417969 26.371094 14.058594 26.46875 13.699219 26.46875 C 13.367188 26.46875 13.019531 26.382812 12.722656 26.21875 C 12.097656 25.871094 11.695312 25.210938 11.695312 24.496094 Z M 6.878906 32.195312 L 30.167969 32.195312 C 33.941406 32.195312 37.007812 29.179688 37.007812 25.40625 L 37.007812 11.609375 C 37.007812 7.835938 33.941406 4.8125 30.167969 4.8125 L 6.878906 4.8125 C 3.105469 4.8125 0 7.835938 0 11.609375 L 0 25.40625 C 0 29.179688 3.105469 32.195312 6.878906 32.195312 " fill-opacity="1" fill-rule="nonzero"/></g></svg>