<svg xmlns="http://www.w3.org/2000/svg" xmlns:xlink="http://www.w3.org/1999/xlink" width="500" zoomAndPan="magnify" viewBox="0 0 375 149.999998" height="200" preserveAspectRatio="xMidYMid meet" version="1.0"><defs><g/></defs><g fill="#fca311" fill-opacity="1"><g transform="translate(137.612601, 90.01757)"><g><path d="M 21.3125 0.9375 C 17.125 0.9375 13.679688 0.101562 10.984375 -1.5625 C 8.285156 -3.238281 6.285156 -5.523438 4.984375 -8.421875 C 3.679688 -11.328125 3.03125 -14.632812 3.03125 -18.34375 C 3.03125 -22.007812 3.691406 -25.289062 5.015625 -28.1875 C 6.335938 -31.09375 8.351562 -33.390625 11.0625 -35.078125 C 13.78125 -36.773438 17.234375 -37.625 21.421875 -37.625 C 27.078125 -37.625 31.265625 -36.316406 33.984375 -33.703125 C 36.703125 -31.097656 38.28125 -27.519531 38.71875 -22.96875 L 34.09375 -22.96875 C 33.726562 -26.5625 32.5 -29.265625 30.40625 -31.078125 C 28.3125 -32.898438 25.28125 -33.8125 21.3125 -33.8125 C 16.757812 -33.8125 13.375 -32.515625 11.15625 -29.921875 C 8.9375 -27.335938 7.828125 -23.476562 7.828125 -18.34375 C 7.828125 -13.238281 8.914062 -9.378906 11.09375 -6.765625 C 13.28125 -4.160156 16.648438 -2.859375 21.203125 -2.859375 C 25.347656 -2.859375 28.484375 -3.882812 30.609375 -5.9375 C 32.742188 -8 33.941406 -10.882812 34.203125 -14.59375 L 38.890625 -14.59375 C 38.703125 -11.507812 37.960938 -8.800781 36.671875 -6.46875 C 35.390625 -4.132812 33.488281 -2.316406 30.96875 -1.015625 C 28.457031 0.285156 25.238281 0.9375 21.3125 0.9375 Z M 21.3125 0.9375 "/></g></g></g><g fill="#fca311" fill-opacity="1"><g transform="translate(179.243687, 90.01757)"><g><path d="M 30.90625 -9.6875 L 30.90625 -5.84375 C 30.90625 -4.476562 30.984375 -3.335938 31.140625 -2.421875 C 31.304688 -1.503906 31.460938 -0.695312 31.609375 0 L 27.15625 0 C 26.96875 -0.625 26.8125 -1.394531 26.6875 -2.3125 C 26.5625 -3.226562 26.5 -4.347656 26.5 -5.671875 L 26.5 -9.03125 C 26.5 -11.632812 25.816406 -13.515625 24.453125 -14.671875 C 23.097656 -15.828125 21.148438 -16.40625 18.609375 -16.40625 L 8.3125 -16.40625 L 8.3125 0 L 3.75 0 L 3.75 -36.625 L 20.8125 -36.625 C 24.601562 -36.625 27.425781 -35.75 29.28125 -34 C 31.132812 -32.257812 32.0625 -29.921875 32.0625 -26.984375 C 32.0625 -24.523438 31.390625 -22.488281 30.046875 -20.875 C 28.703125 -19.257812 27.003906 -18.210938 24.953125 -17.734375 C 26.128906 -17.398438 27.15625 -16.945312 28.03125 -16.375 C 28.914062 -15.8125 29.613281 -15.003906 30.125 -13.953125 C 30.644531 -12.910156 30.90625 -11.488281 30.90625 -9.6875 Z M 20.265625 -19.828125 C 22.835938 -19.828125 24.644531 -20.429688 25.6875 -21.640625 C 26.738281 -22.859375 27.265625 -24.515625 27.265625 -26.609375 C 27.265625 -28.734375 26.703125 -30.316406 25.578125 -31.359375 C 24.460938 -32.410156 22.710938 -32.9375 20.328125 -32.9375 L 8.3125 -32.9375 L 8.3125 -19.828125 Z M 20.265625 -19.828125 "/></g></g></g><g fill="#fca311" fill-opacity="1"><g transform="translate(214.872413, 90.01757)"><g><path d="M 21.265625 0.9375 C 17.035156 0.9375 13.570312 0.101562 10.875 -1.5625 C 8.175781 -3.238281 6.191406 -5.535156 4.921875 -8.453125 C 3.660156 -11.367188 3.03125 -14.664062 3.03125 -18.34375 C 3.03125 -21.976562 3.660156 -25.253906 4.921875 -28.171875 C 6.191406 -31.085938 8.175781 -33.390625 10.875 -35.078125 C 13.570312 -36.773438 17.035156 -37.625 21.265625 -37.625 C 25.523438 -37.625 28.992188 -36.769531 31.671875 -35.0625 C 34.347656 -33.351562 36.328125 -31.046875 37.609375 -28.140625 C 38.898438 -25.242188 39.546875 -21.976562 39.546875 -18.34375 C 39.546875 -14.664062 38.898438 -11.375 37.609375 -8.46875 C 36.328125 -5.570312 34.347656 -3.28125 31.671875 -1.59375 C 28.992188 0.09375 25.523438 0.9375 21.265625 0.9375 Z M 7.828125 -18.34375 C 7.828125 -13.195312 8.898438 -9.328125 11.046875 -6.734375 C 13.191406 -4.148438 16.597656 -2.859375 21.265625 -2.859375 C 25.960938 -2.859375 29.382812 -4.148438 31.53125 -6.734375 C 33.675781 -9.328125 34.75 -13.195312 34.75 -18.34375 C 34.75 -23.476562 33.675781 -27.335938 31.53125 -29.921875 C 29.382812 -32.515625 25.960938 -33.8125 21.265625 -33.8125 C 16.597656 -33.8125 13.191406 -32.515625 11.046875 -29.921875 C 8.898438 -27.335938 7.828125 -23.476562 7.828125 -18.34375 Z M 7.828125 -18.34375 "/></g></g></g><g fill="#fca311" fill-opacity="1"><g transform="translate(257.439648, 90.01757)"><g><path d="M 30.40625 -36.625 L 34.921875 -36.625 L 34.921875 0 L 27.265625 0 L 10.625 -28.75 C 9.707031 -30.507812 8.9375 -32.109375 8.3125 -33.546875 L 8.3125 0 L 3.75 0 L 3.75 -36.625 L 11.453125 -36.625 L 28.09375 -7.828125 C 28.457031 -7.203125 28.84375 -6.460938 29.25 -5.609375 C 29.65625 -4.765625 30.039062 -3.921875 30.40625 -3.078125 Z M 30.40625 -36.625 "/></g></g></g><g fill="#fca311" fill-opacity="1"><g transform="translate(296.152157, 90.01757)"><g><path d="M 21.265625 0.9375 C 17.035156 0.9375 13.570312 0.101562 10.875 -1.5625 C 8.175781 -3.238281 6.191406 -5.535156 4.921875 -8.453125 C 3.660156 -11.367188 3.03125 -14.664062 3.03125 -18.34375 C 3.03125 -21.976562 3.660156 -25.253906 4.921875 -28.171875 C 6.191406 -31.085938 8.175781 -33.390625 10.875 -35.078125 C 13.570312 -36.773438 17.035156 -37.625 21.265625 -37.625 C 25.523438 -37.625 28.992188 -36.769531 31.671875 -35.0625 C 34.347656 -33.351562 36.328125 -31.046875 37.609375 -28.140625 C 38.898438 -25.242188 39.546875 -21.976562 39.546875 -18.34375 C 39.546875 -14.664062 38.898438 -11.375 37.609375 -8.46875 C 36.328125 -5.570312 34.347656 -3.28125 31.671875 -1.59375 C 28.992188 0.09375 25.523438 0.9375 21.265625 0.9375 Z M 7.828125 -18.34375 C 7.828125 -13.195312 8.898438 -9.328125 11.046875 -6.734375 C 13.191406 -4.148438 16.597656 -2.859375 21.265625 -2.859375 C 25.960938 -2.859375 29.382812 -4.148438 31.53125 -6.734375 C 33.675781 -9.328125 34.75 -13.195312 34.75 -18.34375 C 34.75 -23.476562 33.675781 -27.335938 31.53125 -29.921875 C 29.382812 -32.515625 25.960938 -33.8125 21.265625 -33.8125 C 16.597656 -33.8125 13.191406 -32.515625 11.046875 -29.921875 C 8.898438 -27.335938 7.828125 -23.476562 7.828125 -18.34375 Z M 7.828125 -18.34375 "/></g></g></g><g fill="#fca311" fill-opacity="1"><g transform="translate(338.719392, 90.01757)"><g><path d="M 2.859375 -12.5625 L 7.328125 -12.5625 C 7.359375 -10.6875 7.738281 -9.003906 8.46875 -7.515625 C 9.207031 -6.023438 10.410156 -4.859375 12.078125 -4.015625 C 13.753906 -3.171875 16.007812 -2.75 18.84375 -2.75 C 21.375 -2.75 23.351562 -3.023438 24.78125 -3.578125 C 26.21875 -4.128906 27.226562 -4.914062 27.8125 -5.9375 C 28.40625 -6.96875 28.703125 -8.179688 28.703125 -9.578125 C 28.703125 -11.523438 28.164062 -13.015625 27.09375 -14.046875 C 26.03125 -15.078125 24.34375 -15.773438 22.03125 -16.140625 L 13.390625 -17.453125 C 10.191406 -17.929688 7.835938 -18.957031 6.328125 -20.53125 C 4.828125 -22.113281 4.078125 -24.285156 4.078125 -27.046875 C 4.078125 -29.023438 4.582031 -30.8125 5.59375 -32.40625 C 6.601562 -34.007812 8.132812 -35.28125 10.1875 -36.21875 C 12.25 -37.15625 14.859375 -37.625 18.015625 -37.625 C 22.816406 -37.625 26.421875 -36.519531 28.828125 -34.3125 C 31.234375 -32.113281 32.566406 -29.25 32.828125 -25.71875 L 28.421875 -25.71875 C 28.160156 -28.21875 27.210938 -30.226562 25.578125 -31.75 C 23.941406 -33.269531 21.398438 -34.03125 17.953125 -34.03125 C 14.722656 -34.03125 12.375 -33.394531 10.90625 -32.125 C 9.4375 -30.863281 8.703125 -29.207031 8.703125 -27.15625 C 8.703125 -25.71875 9.101562 -24.472656 9.90625 -23.421875 C 10.71875 -22.378906 12.148438 -21.695312 14.203125 -21.375 L 23.359375 -20 C 26.617188 -19.476562 29.09375 -18.445312 30.78125 -16.90625 C 32.476562 -15.363281 33.328125 -13.125 33.328125 -10.1875 C 33.328125 -6.695312 32.1875 -3.988281 29.90625 -2.0625 C 27.632812 -0.132812 23.945312 0.828125 18.84375 0.828125 C 14.875 0.828125 11.722656 0.210938 9.390625 -1.015625 C 7.054688 -2.242188 5.382812 -3.878906 4.375 -5.921875 C 3.363281 -7.960938 2.859375 -10.175781 2.859375 -12.5625 Z M 2.859375 -12.5625 "/></g></g></g><path stroke-linecap="butt" transform="matrix(0, 0.75, -0.75, 0, 126.704674, 29.841299)" fill="none" stroke-linejoin="miter" d="M -0.00194041 1.502066 L 118.86265 1.502066 " stroke="#fca311" stroke-width="3" stroke-opacity="1" stroke-miterlimit="4"/><g fill="#fca311" fill-opacity="1"><g transform="translate(0.0134602, 98.098024)"><g><path d="M 14.34375 0.46875 C 10.25 0.46875 7.140625 -0.773438 5.015625 -3.265625 C 2.890625 -5.765625 1.828125 -9.28125 1.828125 -13.8125 L 1.828125 -37.953125 C 1.828125 -42.316406 2.890625 -45.609375 5.015625 -47.828125 C 7.140625 -50.054688 10.25 -51.171875 14.34375 -51.171875 C 18.4375 -51.171875 21.546875 -50.054688 23.671875 -47.828125 C 25.796875 -45.609375 26.859375 -42.316406 26.859375 -37.953125 L 26.859375 -13.8125 C 26.859375 -9.25 25.796875 -5.726562 23.671875 -3.25 C 21.546875 -0.769531 18.4375 0.46875 14.34375 0.46875 Z M 14.34375 -8.859375 C 15.25 -8.859375 15.859375 -9.25 16.171875 -10.03125 C 16.484375 -10.820312 16.640625 -11.925781 16.640625 -13.34375 L 16.640625 -38.125 C 16.640625 -39.226562 16.488281 -40.125 16.1875 -40.8125 C 15.894531 -41.5 15.300781 -41.84375 14.40625 -41.84375 C 12.707031 -41.84375 11.859375 -40.5625 11.859375 -38 L 11.859375 -13.28125 C 11.859375 -11.820312 12.035156 -10.71875 12.390625 -9.96875 C 12.742188 -9.226562 13.394531 -8.859375 14.34375 -8.859375 Z M 14.34375 -8.859375 "/></g></g></g><g fill="#fca311" fill-opacity="1"><g transform="translate(28.691941, 98.098024)"><g><path d="M 2.25 0 L 2.25 -50.6875 L 12.28125 -50.6875 L 12.28125 -30.390625 L 17 -50.6875 L 27.203125 -50.6875 L 21.546875 -27.5 L 28.390625 0 L 17.875 0 L 12.328125 -24.546875 L 12.328125 0 Z M 2.25 0 "/></g></g></g><g fill="#fca311" fill-opacity="1"><g transform="translate(56.544296, 98.098024)"><g><path d="M 14.34375 0.46875 C 10.25 0.46875 7.140625 -0.773438 5.015625 -3.265625 C 2.890625 -5.765625 1.828125 -9.28125 1.828125 -13.8125 L 1.828125 -37.953125 C 1.828125 -42.316406 2.890625 -45.609375 5.015625 -47.828125 C 7.140625 -50.054688 10.25 -51.171875 14.34375 -51.171875 C 18.4375 -51.171875 21.546875 -50.054688 23.671875 -47.828125 C 25.796875 -45.609375 26.859375 -42.316406 26.859375 -37.953125 L 26.859375 -13.8125 C 26.859375 -9.25 25.796875 -5.726562 23.671875 -3.25 C 21.546875 -0.769531 18.4375 0.46875 14.34375 0.46875 Z M 14.34375 -8.859375 C 15.25 -8.859375 15.859375 -9.25 16.171875 -10.03125 C 16.484375 -10.820312 16.640625 -11.925781 16.640625 -13.34375 L 16.640625 -38.125 C 16.640625 -39.226562 16.488281 -40.125 16.1875 -40.8125 C 15.894531 -41.5 15.300781 -41.84375 14.40625 -41.84375 C 12.707031 -41.84375 11.859375 -40.5625 11.859375 -38 L 11.859375 -13.28125 C 11.859375 -11.820312 12.035156 -10.71875 12.390625 -9.96875 C 12.742188 -9.226562 13.394531 -8.859375 14.34375 -8.859375 Z M 14.34375 -8.859375 "/></g></g></g><g fill="#fca311" fill-opacity="1"><g transform="translate(85.222776, 98.098024)"><g><path d="M 14.28125 0.46875 C 9.675781 0.46875 6.347656 -0.671875 4.296875 -2.953125 C 2.253906 -5.234375 1.234375 -8.910156 1.234375 -13.984375 L 1.234375 -18.9375 L 11.21875 -18.9375 L 11.21875 -12.625 C 11.21875 -10.113281 12.019531 -8.859375 13.625 -8.859375 C 14.53125 -8.859375 15.160156 -9.125 15.515625 -9.65625 C 15.867188 -10.1875 16.046875 -11.078125 16.046875 -12.328125 C 16.046875 -13.984375 15.847656 -15.351562 15.453125 -16.4375 C 15.066406 -17.519531 14.566406 -18.425781 13.953125 -19.15625 C 13.347656 -19.882812 12.257812 -21.015625 10.6875 -22.546875 L 6.3125 -26.90625 C 2.925781 -30.21875 1.234375 -33.878906 1.234375 -37.890625 C 1.234375 -42.210938 2.226562 -45.503906 4.21875 -47.765625 C 6.207031 -50.035156 9.109375 -51.171875 12.921875 -51.171875 C 17.484375 -51.171875 20.769531 -49.957031 22.78125 -47.53125 C 24.789062 -45.113281 25.796875 -41.328125 25.796875 -36.171875 L 15.46875 -36.171875 L 15.40625 -39.65625 C 15.40625 -40.320312 15.21875 -40.851562 14.84375 -41.25 C 14.46875 -41.644531 13.945312 -41.84375 13.28125 -41.84375 C 12.488281 -41.84375 11.894531 -41.625 11.5 -41.1875 C 11.113281 -40.757812 10.921875 -40.171875 10.921875 -39.421875 C 10.921875 -37.765625 11.863281 -36.050781 13.75 -34.28125 L 19.65625 -28.625 C 21.03125 -27.28125 22.171875 -26.007812 23.078125 -24.8125 C 23.984375 -23.613281 24.707031 -22.195312 25.25 -20.5625 C 25.800781 -18.9375 26.078125 -17 26.078125 -14.75 C 26.078125 -9.757812 25.160156 -5.972656 23.328125 -3.390625 C 21.503906 -0.816406 18.488281 0.46875 14.28125 0.46875 Z M 14.28125 0.46875 "/></g></g></g></svg>